<?xml version="1.0" encoding="utf-8"?>
<!-- Generator: Adobe Illustrator 25.2.1, SVG Export Plug-In . SVG Version: 6.00 Build 0)  -->
<svg version="1.1" id="Layer_6" xmlns="http://www.w3.org/2000/svg" xmlns:xlink="http://www.w3.org/1999/xlink" x="0px" y="0px"
	 viewBox="0 0 64 64" style="enable-background:new 0 0 64 64;" xml:space="preserve">
<style type="text/css">
	.st0{fill:#FFFFFF;}
	.st1{fill:#FFD800;}
	.st2{fill:#F06060;}
	.st3{fill:#5C4B51;}
</style>
<path class="st0" d="M53,42v4c0,0.7-0.2,1.4-0.5,2L51,51l-1.5-3c-0.3-0.6-0.5-1.3-0.5-2v-4H53z"/>
<rect x="49" y="17" class="st1" width="4" height="25"/>
<rect x="49" y="13" class="st2" width="4" height="4"/>
<path class="st2" d="M37.9,10c2.3,0,4.1,1.8,4.1,4.1c0,0,0,0,0,0v36.8c0,2.3-1.8,3.1-4.1,3.1H10V10H37.9z M18,31c0,5,4,9,9,9
	s9-4,9-9s-4-9-9-9S18,26,18,31z"/>
<path class="st3" d="M30.6,28.2c0.8,0,1.4,0.6,1.4,1.4S31.4,31,30.6,31c-0.8,0-1.4-0.6-1.4-1.4C29.2,28.8,29.8,28.2,30.6,28.2
	C30.6,28.2,30.6,28.2,30.6,28.2z"/>
<path class="st1" d="M30.6,31c0.8,0,1.4-0.6,1.4-1.4s-0.6-1.4-1.4-1.4c-0.8,0-1.4,0.6-1.4,1.4C29.2,30.4,29.8,31,30.6,31L30.6,31z
	 M27,40c-5,0-9-4-9-9s4-9,9-9s9,4,9,9S32,40,27,40z M23.4,31c0.8,0,1.4-0.6,1.4-1.4c0-0.8-0.6-1.4-1.4-1.4c-0.8,0-1.4,0.6-1.4,1.4
	C22,30.4,22.6,31,23.4,31L23.4,31z"/>
<path class="st3" d="M23.4,28.2c0.8,0,1.4,0.6,1.4,1.4c0,0.8-0.6,1.4-1.4,1.4c-0.8,0-1.4-0.6-1.4-1.4C22,28.8,22.6,28.2,23.4,28.2
	C23.4,28.2,23.4,28.2,23.4,28.2z"/>
<path class="st3" d="M10,19H9c-1.7,0-3-1.3-3-3s1.3-3,3-3h4c0.6,0,1,0.4,1,1s-0.4,1-1,1H9c-0.6,0-1,0.4-1,1c0,0.6,0.4,1,1,1h1
	c0.6,0,1,0.4,1,1S10.6,19,10,19z"/>
<path class="st3" d="M10,27H9c-1.7,0-3-1.3-3-3s1.3-3,3-3h4c0.6,0,1,0.4,1,1s-0.4,1-1,1H9c-0.6,0-1,0.4-1,1s0.4,1,1,1h1
	c0.6,0,1,0.4,1,1S10.6,27,10,27z"/>
<path class="st3" d="M10,35H9c-1.7,0-3-1.3-3-3c0-1.7,1.3-3,3-3h4c0.6,0,1,0.4,1,1s-0.4,1-1,1H9c-0.6,0-1,0.4-1,1s0.4,1,1,1h1
	c0.6,0,1,0.4,1,1S10.6,35,10,35z"/>
<path class="st3" d="M10,43H9c-1.7,0-3-1.3-3-3s1.3-3,3-3h4c0.6,0,1,0.4,1,1s-0.4,1-1,1H9c-0.6,0-1,0.4-1,1s0.4,1,1,1h1
	c0.6,0,1,0.4,1,1S10.6,43,10,43z"/>
<path class="st3" d="M10,51H9c-1.7,0-3-1.3-3-3s1.3-3,3-3h4c0.6,0,1,0.4,1,1s-0.4,1-1,1H9c-0.6,0-1,0.4-1,1s0.4,1,1,1h1
	c0.6,0,1,0.4,1,1S10.6,51,10,51z"/>
<path class="st3" d="M27,41c-5.5,0-10-4.5-10-10s4.5-10,10-10s10,4.5,10,10C37,36.5,32.5,41,27,41z M27,23c-4.4,0-8,3.6-8,8
	s3.6,8,8,8s8-3.6,8-8C35,26.6,31.4,23,27,23z"/>
<path class="st3" d="M27,37c-2.1,0.1-3.9-1.2-4.6-3.1c-0.2-0.5,0.1-1.1,0.7-1.2c0.5-0.2,1.1,0.1,1.2,0.7c0.4,1.1,1.5,1.8,2.7,1.7
	c1.2,0.1,2.3-0.6,2.7-1.7c0.2-0.5,0.7-0.8,1.2-0.7c0.5,0.2,0.8,0.7,0.7,1.2C30.9,35.8,29.1,37.1,27,37z"/>
<path class="st3" d="M37.9,55H10c-0.6,0-1-0.4-1-1v-5c0-0.6,0.4-1,1-1s1,0.4,1,1v4h26.9c3.1,0,3.1-1.6,3.1-2.1V14.1
	c0-1.7-1.4-3.1-3.1-3.1H11v3c0,0.6-0.4,1-1,1s-1-0.4-1-1v-4c0-0.6,0.4-1,1-1h27.9c2.8,0,5.1,2.3,5.1,5.1v36.8
	C43,53.5,41.1,55,37.9,55z"/>
<path class="st3" d="M10,23c-0.6,0-1-0.4-1-1v-5c0-0.6,0.4-1,1-1s1,0.4,1,1v5C11,22.6,10.6,23,10,23z"/>
<path class="st3" d="M10,31c-0.6,0-1-0.4-1-1v-5c0-0.6,0.4-1,1-1s1,0.4,1,1v5C11,30.6,10.6,31,10,31z"/>
<path class="st3" d="M10,39c-0.6,0-1-0.4-1-1v-5c0-0.6,0.4-1,1-1s1,0.4,1,1v5C11,38.6,10.6,39,10,39z"/>
<path class="st3" d="M10,47c-0.6,0-1-0.4-1-1v-5c0-0.6,0.4-1,1-1s1,0.4,1,1v5C11,46.6,10.6,47,10,47z"/>
<path class="st3" d="M51,52c-0.4,0-0.7-0.2-0.9-0.5l-1.5-3C48.2,47.7,48,46.8,48,46V13c0-0.6,0.4-1,1-1h4c0.6,0,1,0.4,1,1v33
	c0,0.9-0.2,1.7-0.6,2.5l-1.5,3C51.7,51.8,51.4,52,51,52z M50,14v32c0,0.5,0.1,1.1,0.4,1.5l0.6,1.3l0.6-1.3c0.2-0.5,0.4-1,0.4-1.5V14
	H50z"/>
<path class="st3" d="M53,43h-4c-0.6,0-1-0.4-1-1s0.4-1,1-1h4c0.6,0,1,0.4,1,1S53.6,43,53,43z"/>
<path class="st3" d="M57,26c-0.6,0-1-0.4-1-1v-7h-7c-0.6,0-1-0.4-1-1s0.4-1,1-1h8c0.6,0,1,0.4,1,1v8C58,25.6,57.6,26,57,26z"/>
<path class="st3" d="M51,54c-0.6,0-1-0.4-1-1v-2c0-0.6,0.4-1,1-1s1,0.4,1,1v2C52,53.6,51.6,54,51,54z"/>
</svg>
