<svg id="Capa_1" data-name="Capa 1" xmlns="http://www.w3.org/2000/svg" viewBox="0 0 385.5 485.5"><path d="M422.1,126.2H126.4a49.8,49.8,0,0,1,0-99.6H422.2a13.3,13.3,0,1,0,0-26.6H126.4A76.521,76.521,0,0,0,50,76.4V409.1a76.521,76.521,0,0,0,76.4,76.4H422.2a13.294,13.294,0,0,0,13.3-13.3V139.5A13.445,13.445,0,0,0,422.1,126.2ZM408.8,458.9H126.4a49.869,49.869,0,0,1-49.8-49.8V134.4a76.265,76.265,0,0,0,49.8,18.5H408.8v306Z" transform="translate(-50 0)" fill="#fff"/><path d="M130.6,64.3a13.3,13.3,0,1,0,0,26.6H380.4a13.3,13.3,0,1,0,0-26.6Z" transform="translate(-50 0)" fill="#fff"/><path d="M282.9,274.2a16.25,16.25,0,1,1-16.3,16.2A16.218,16.218,0,0,1,282.9,274.2Z" transform="translate(-50 0)" fill="#fff"/><path d="M200.8,274.2a16.25,16.25,0,1,1-16.3,16.2A16.218,16.218,0,0,1,200.8,274.2Z" transform="translate(-50 0)" fill="#fff"/><path d="M241.9,420.3a114,114,0,1,1,114-114A114.078,114.078,0,0,1,241.9,420.3Zm0-205.2a91.2,91.2,0,1,0,91.2,91.2A91.288,91.288,0,0,0,241.9,215.1Z" transform="translate(-50 0)" fill="#fff"/><path d="M241.9,374.7c-33.3,0-49.1-23.5-52.8-35.9a11.479,11.479,0,0,1,7.7-14.2,11.315,11.315,0,0,1,14.1,7.6c.7,2.1,7.1,19.6,30.9,19.6,23.9,0,30.3-17.7,30.9-19.7a11.534,11.534,0,0,1,14.2-7.5,11.315,11.315,0,0,1,7.6,14.1C291,351.2,275.2,374.7,241.9,374.7Z" transform="translate(-50 0)" fill="#fff"/></svg>